<mxfile host="app.diagrams.net" agent="Mozilla/5.0 (Windows NT 10.0; Win64; x64; rv:133.0) Gecko/20100101 Firefox/133.0" version="26.0.1">
  <diagram name="Страница — 1" id="cnWyU_uFDm1ztLjRzLX5">
    <mxGraphModel dx="1434" dy="782" grid="1" gridSize="10" guides="1" tooltips="1" connect="1" arrows="1" fold="1" page="1" pageScale="1" pageWidth="1654" pageHeight="2336" math="0" shadow="0">
      <root>
        <mxCell id="0" />
        <mxCell id="1" parent="0" />
        <mxCell id="CK-lzYSQ9XtsYGEkBCvO-1" value="Actor" style="shape=umlActor;verticalLabelPosition=bottom;verticalAlign=top;html=1;outlineConnect=0;" vertex="1" parent="1">
          <mxGeometry x="90" y="130" width="30" height="60" as="geometry" />
        </mxCell>
        <mxCell id="CK-lzYSQ9XtsYGEkBCvO-2" value="User" style="text;html=1;align=center;verticalAlign=middle;whiteSpace=wrap;rounded=0;" vertex="1" parent="1">
          <mxGeometry x="75" y="70" width="60" height="30" as="geometry" />
        </mxCell>
        <mxCell id="CK-lzYSQ9XtsYGEkBCvO-3" value="" style="endArrow=classic;html=1;rounded=0;" edge="1" parent="1">
          <mxGeometry width="50" height="50" relative="1" as="geometry">
            <mxPoint x="140" y="170" as="sourcePoint" />
            <mxPoint x="250" y="170" as="targetPoint" />
          </mxGeometry>
        </mxCell>
        <mxCell id="CK-lzYSQ9XtsYGEkBCvO-4" value="Json" style="text;html=1;align=center;verticalAlign=middle;whiteSpace=wrap;rounded=0;" vertex="1" parent="1">
          <mxGeometry x="160" y="130" width="60" height="30" as="geometry" />
        </mxCell>
        <mxCell id="CK-lzYSQ9XtsYGEkBCvO-5" value="Json:fileName(path to json file)" style="text;html=1;align=center;verticalAlign=middle;whiteSpace=wrap;rounded=0;" vertex="1" parent="1">
          <mxGeometry x="17.5" y="270" width="175" height="30" as="geometry" />
        </mxCell>
        <mxCell id="CK-lzYSQ9XtsYGEkBCvO-6" value="Примечания" style="text;html=1;align=center;verticalAlign=middle;whiteSpace=wrap;rounded=0;" vertex="1" parent="1">
          <mxGeometry x="60" y="240" width="60" height="30" as="geometry" />
        </mxCell>
        <mxCell id="CK-lzYSQ9XtsYGEkBCvO-8" value="" style="endArrow=none;html=1;rounded=0;" edge="1" parent="1">
          <mxGeometry width="50" height="50" relative="1" as="geometry">
            <mxPoint x="260" y="270" as="sourcePoint" />
            <mxPoint x="260" y="80" as="targetPoint" />
          </mxGeometry>
        </mxCell>
        <mxCell id="CK-lzYSQ9XtsYGEkBCvO-12" style="edgeStyle=orthogonalEdgeStyle;rounded=0;orthogonalLoop=1;jettySize=auto;html=1;entryX=0.5;entryY=0;entryDx=0;entryDy=0;" edge="1" parent="1" source="CK-lzYSQ9XtsYGEkBCvO-9" target="CK-lzYSQ9XtsYGEkBCvO-11">
          <mxGeometry relative="1" as="geometry" />
        </mxCell>
        <mxCell id="CK-lzYSQ9XtsYGEkBCvO-9" value="Component: Parse" style="rounded=0;whiteSpace=wrap;html=1;" vertex="1" parent="1">
          <mxGeometry x="330" y="150" width="120" height="60" as="geometry" />
        </mxCell>
        <mxCell id="CK-lzYSQ9XtsYGEkBCvO-10" value="" style="endArrow=classic;html=1;rounded=0;entryX=0;entryY=0.5;entryDx=0;entryDy=0;" edge="1" parent="1" target="CK-lzYSQ9XtsYGEkBCvO-9">
          <mxGeometry width="50" height="50" relative="1" as="geometry">
            <mxPoint x="260" y="180" as="sourcePoint" />
            <mxPoint x="310" y="130" as="targetPoint" />
          </mxGeometry>
        </mxCell>
        <mxCell id="CK-lzYSQ9XtsYGEkBCvO-29" style="edgeStyle=orthogonalEdgeStyle;rounded=0;orthogonalLoop=1;jettySize=auto;html=1;" edge="1" parent="1" source="CK-lzYSQ9XtsYGEkBCvO-11" target="CK-lzYSQ9XtsYGEkBCvO-28">
          <mxGeometry relative="1" as="geometry" />
        </mxCell>
        <mxCell id="CK-lzYSQ9XtsYGEkBCvO-11" value="Data:&lt;br&gt;1)TransportCatalogue&lt;br&gt;2) RenderSettings&lt;br&gt;3) StatRequests" style="rounded=0;whiteSpace=wrap;html=1;" vertex="1" parent="1">
          <mxGeometry x="330" y="280" width="120" height="60" as="geometry" />
        </mxCell>
        <mxCell id="CK-lzYSQ9XtsYGEkBCvO-13" value="TransportCatalogue&lt;br&gt;json: &lt;code class=&quot;code-block__code json&quot;&gt;base_requests&lt;/code&gt;" style="shape=module;align=left;spacingLeft=20;align=center;verticalAlign=top;whiteSpace=wrap;html=1;" vertex="1" parent="1">
          <mxGeometry x="18" y="390" width="242" height="50" as="geometry" />
        </mxCell>
        <mxCell id="CK-lzYSQ9XtsYGEkBCvO-14" value="&lt;div&gt;RenderSettings:&lt;/div&gt;&lt;div&gt;json: render_settings&lt;br&gt;&lt;/div&gt;" style="shape=module;align=left;spacingLeft=20;align=center;verticalAlign=top;whiteSpace=wrap;html=1;" vertex="1" parent="1">
          <mxGeometry x="18" y="460" width="242" height="50" as="geometry" />
        </mxCell>
        <mxCell id="CK-lzYSQ9XtsYGEkBCvO-15" value="StatRequests&lt;br&gt;json:stat_requests" style="shape=module;align=left;spacingLeft=20;align=center;verticalAlign=top;whiteSpace=wrap;html=1;" vertex="1" parent="1">
          <mxGeometry x="18" y="530" width="242" height="50" as="geometry" />
        </mxCell>
        <mxCell id="CK-lzYSQ9XtsYGEkBCvO-17" value="" style="ellipse;whiteSpace=wrap;html=1;align=center;aspect=fixed;fillColor=none;strokeColor=none;resizable=0;perimeter=centerPerimeter;rotatable=0;allowArrows=0;points=[];outlineConnect=1;" vertex="1" parent="1">
          <mxGeometry x="310" y="405" width="10" height="10" as="geometry" />
        </mxCell>
        <mxCell id="CK-lzYSQ9XtsYGEkBCvO-21" value="RenderSettings: Domain&lt;br&gt;params from &quot;render_settings&quot;" style="html=1;whiteSpace=wrap;" vertex="1" parent="1">
          <mxGeometry x="18" y="620" width="190" height="50" as="geometry" />
        </mxCell>
        <mxCell id="CK-lzYSQ9XtsYGEkBCvO-22" value="json:render_settings&lt;br&gt;&lt;pre class=&quot;code-block__code-wrapper&quot;&gt;&lt;code class=&quot;code-block__code json&quot;&gt;  &quot;width&quot;: double&lt;br&gt;  &quot;height&quot;: double&lt;br&gt;  &quot;padding&quot;: double&lt;br&gt;  &quot;line_width&quot;: double&lt;br&gt;  &quot;stop_radius&quot;: double&lt;br&gt;  &quot;bus_label_font_size&quot;:double&lt;br&gt;  &quot;bus_label_offset&quot;: array[2] double&lt;br&gt;  &quot;stop_label_font_size&quot;: int&lt;br&gt;  &quot;stop_label_offset&quot;: array[2]double&lt;br&gt;  &quot;underlayer_color&quot;: Color&lt;br&gt;  &quot;underlayer_width&quot;:double&lt;br&gt;  &quot;color_palette&quot;: vector&amp;lt;Color&amp;gt;&lt;br&gt;&lt;br&gt;struct Color:{ array[4]double}&lt;br&gt; &lt;/code&gt;&lt;/pre&gt;" style="html=1;whiteSpace=wrap;" vertex="1" parent="1">
          <mxGeometry x="20" y="700" width="348" height="280" as="geometry" />
        </mxCell>
        <mxCell id="CK-lzYSQ9XtsYGEkBCvO-23" value="Parse" style="text;html=1;align=center;verticalAlign=middle;whiteSpace=wrap;rounded=0;" vertex="1" parent="1">
          <mxGeometry x="420" y="230" width="60" height="30" as="geometry" />
        </mxCell>
        <mxCell id="CK-lzYSQ9XtsYGEkBCvO-32" style="edgeStyle=orthogonalEdgeStyle;rounded=0;orthogonalLoop=1;jettySize=auto;html=1;" edge="1" parent="1" source="CK-lzYSQ9XtsYGEkBCvO-28" target="CK-lzYSQ9XtsYGEkBCvO-31">
          <mxGeometry relative="1" as="geometry" />
        </mxCell>
        <mxCell id="CK-lzYSQ9XtsYGEkBCvO-28" value="ParseModel" style="shape=module;align=left;spacingLeft=20;align=center;verticalAlign=top;whiteSpace=wrap;html=1;" vertex="1" parent="1">
          <mxGeometry x="500" y="365" width="100" height="50" as="geometry" />
        </mxCell>
        <mxCell id="CK-lzYSQ9XtsYGEkBCvO-30" value="TransportCatalog&lt;br&gt;StatRequest" style="text;align=center;fontStyle=1;verticalAlign=middle;spacingLeft=3;spacingRight=3;strokeColor=none;rotatable=0;points=[[0,0.5],[1,0.5]];portConstraint=eastwest;html=1;" vertex="1" parent="1">
          <mxGeometry x="510" y="280" width="80" height="26" as="geometry" />
        </mxCell>
        <mxCell id="CK-lzYSQ9XtsYGEkBCvO-38" style="edgeStyle=orthogonalEdgeStyle;rounded=0;orthogonalLoop=1;jettySize=auto;html=1;entryX=1;entryY=0.75;entryDx=0;entryDy=0;" edge="1" parent="1" source="CK-lzYSQ9XtsYGEkBCvO-31" target="CK-lzYSQ9XtsYGEkBCvO-34">
          <mxGeometry relative="1" as="geometry">
            <Array as="points">
              <mxPoint x="780" y="538" />
            </Array>
          </mxGeometry>
        </mxCell>
        <mxCell id="CK-lzYSQ9XtsYGEkBCvO-31" value="vector&amp;lt;IRenderable&amp;gt;" style="html=1;whiteSpace=wrap;" vertex="1" parent="1">
          <mxGeometry x="690" y="365" width="160" height="50" as="geometry" />
        </mxCell>
        <mxCell id="CK-lzYSQ9XtsYGEkBCvO-33" value="Parse" style="text;align=center;fontStyle=1;verticalAlign=middle;spacingLeft=3;spacingRight=3;strokeColor=none;rotatable=0;points=[[0,0.5],[1,0.5]];portConstraint=eastwest;html=1;" vertex="1" parent="1">
          <mxGeometry x="610" y="350" width="80" height="26" as="geometry" />
        </mxCell>
        <mxCell id="CK-lzYSQ9XtsYGEkBCvO-40" style="edgeStyle=orthogonalEdgeStyle;rounded=0;orthogonalLoop=1;jettySize=auto;html=1;entryX=0.5;entryY=0;entryDx=0;entryDy=0;" edge="1" parent="1" source="CK-lzYSQ9XtsYGEkBCvO-34" target="CK-lzYSQ9XtsYGEkBCvO-39">
          <mxGeometry relative="1" as="geometry" />
        </mxCell>
        <mxCell id="CK-lzYSQ9XtsYGEkBCvO-34" value="MapRender: Interface" style="shape=module;align=left;spacingLeft=20;align=center;verticalAlign=top;whiteSpace=wrap;html=1;" vertex="1" parent="1">
          <mxGeometry x="500" y="500" width="100" height="50" as="geometry" />
        </mxCell>
        <mxCell id="CK-lzYSQ9XtsYGEkBCvO-35" style="edgeStyle=orthogonalEdgeStyle;rounded=0;orthogonalLoop=1;jettySize=auto;html=1;entryX=0;entryY=0;entryDx=0;entryDy=35;entryPerimeter=0;" edge="1" parent="1" source="CK-lzYSQ9XtsYGEkBCvO-11" target="CK-lzYSQ9XtsYGEkBCvO-34">
          <mxGeometry relative="1" as="geometry" />
        </mxCell>
        <mxCell id="CK-lzYSQ9XtsYGEkBCvO-36" value="RenderSettings" style="text;align=center;fontStyle=1;verticalAlign=middle;spacingLeft=3;spacingRight=3;strokeColor=none;rotatable=0;points=[[0,0.5],[1,0.5]];portConstraint=eastwest;html=1;" vertex="1" parent="1">
          <mxGeometry x="480" y="440" width="80" height="26" as="geometry" />
        </mxCell>
        <mxCell id="CK-lzYSQ9XtsYGEkBCvO-39" value="Out" style="html=1;whiteSpace=wrap;" vertex="1" parent="1">
          <mxGeometry x="495" y="590" width="110" height="50" as="geometry" />
        </mxCell>
        <mxCell id="CK-lzYSQ9XtsYGEkBCvO-42" style="edgeStyle=orthogonalEdgeStyle;rounded=0;orthogonalLoop=1;jettySize=auto;html=1;" edge="1" parent="1" source="CK-lzYSQ9XtsYGEkBCvO-41">
          <mxGeometry relative="1" as="geometry">
            <mxPoint x="260" y="105" as="targetPoint" />
          </mxGeometry>
        </mxCell>
        <mxCell id="CK-lzYSQ9XtsYGEkBCvO-41" value="Out" style="html=1;whiteSpace=wrap;" vertex="1" parent="1">
          <mxGeometry x="335" y="80" width="110" height="50" as="geometry" />
        </mxCell>
      </root>
    </mxGraphModel>
  </diagram>
</mxfile>
